<svg xmlns="http://www.w3.org/2000/svg" viewBox="0 0 200 200">
  <path d="M100,180 C-20,100 -20,20 50,20 C80,20 100,50 100,50 C100,50 120,20 150,20 C220,20 220,100 100,180 Z" fill="#ffffff" stroke="#000000" stroke-width="5"/>

  <g transform="translate(30, 40)">
    <path d="M15,10 C5,-5 -5,5 5,15 C-5,25 5,35 15,20 C25,35 35,25 25,15 C35,5 25,-5 15,10 Z" fill="#ED1C24" stroke="#000000" stroke-width="3"/>
    <circle cx="15" cy="15" r="5" fill="#ED1C24" stroke="#000000" stroke-width="3"/>
  </g>

  <ellipse cx="65" cy="95" rx="6" ry="8" fill="#000000"/>
  <ellipse cx="135" cy="95" rx="6" ry="8" fill="#000000"/>

  <ellipse cx="100" cy="110" rx="8" ry="5" fill="#FFF200" stroke="#000000" stroke-width="2"/>

  <g stroke="#000000" stroke-width="3" fill="none">
    <path d="M40,105 L20,100"/>
    <path d="M40,115 L20,115"/>
    <path d="M40,125 L20,130"/>
    <path d="M160,105 L180,100"/>
    <path d="M160,115 L180,115"/>
    <path d="M160,125 L180,130"/>
  </g>
</svg>